<svg height="512pt" viewBox="0 0 512.16416 512" width="512pt" xmlns="http://www.w3.org/2000/svg"><path d="m10.578125 501.113281c.332031.34375.65625.675781.996094 1 1.507812 1.445313 3.132812 2.753907 4.867187 3.917969.28125.1875.570313.332031.851563.511719 1.589843.976562 3.25 1.832031 4.964843 2.558593.351563.144532.675782.316407 1.027344.453126 1.902344.761718 3.867188 1.363281 5.871094 1.800781.433594.09375.851562.152343 1.296875.230469 1.929687.355468 3.886719.554687 5.851563.597656h.53125c2.050781-.023438 4.097656-.214844 6.117187-.574219.589844-.101563 1.167969-.253906 1.765625-.390625 1.554688-.347656 3.082031-.796875 4.574219-1.347656.597656-.222656 1.195312-.429688 1.785156-.683594 2.023437-.847656 3.960937-1.878906 5.792969-3.089844l22.800781-14.507812c39.191406-24.039063 72.722656-56.265625 98.304687-94.472656l5.433594-8.378907c1.875-2.820312 5.035156-4.523437 8.425782-4.539062h60.984374l-32.007812 54.167969-10.351562 17.519531-.050782.09375c-10.308594 16.980469-5.53125 39.054687 10.871094 50.253906 8.390625 5.46875 18.65625 7.261719 28.402344 4.957031 9.746094-2.304687 18.121094-8.503906 23.175781-17.152344l54.960937-91.605468 57.121094 64.207031c6.519532 7.277344 15.832032 11.4375 25.601563 11.433594 2.097656 0 4.191406-.191407 6.253906-.578125l61.210937-11.546875c19.800782-2.09375 34.664063-19.058594 34.132813-38.964844.347656-8.785156-3.253906-17.261719-9.8125-23.117187-6.652344-5.953126-15.621094-8.621094-24.449219-7.269532-1.296875.195313-2.671875.425782-4.128906.699219l-62.121094 11.71875c-1.625.28125-3.28125.324219-4.917968.125 12.433593-11.511719 15.226562-30.109375 6.714843-44.765625l-7.617187-13.15625-24.023438-41.4375c-9.019531-15.761719-14.144531-33.449219-14.941406-51.59375l-2.945312-66.757812c-.773438-16.835938-9.203126-32.398438-22.882813-42.246094 28.839844-5.410156 49.757813-30.570313 49.808594-59.914063-.015625-4.03125-1-8-2.867188-11.570312 2.253907-2.160157 4.175781-4.644531 5.699219-7.371094 3.503906-6.132813 4.382812-13.421875 2.429688-20.207031-8.550782-31.042969-37.664063-51.859375-69.800782-49.914063-32.613281 0-57.171875 12.390625-67.414062 33.996094-8.539063 20.234375-5.054688 43.542969 9.027344 60.390625.175781 2.96875.585937 5.921875 1.222656 8.824219-11.355469-6.429688-24.628906-8.613281-37.445313-6.160157l-75.042969 14.359376c-7.605468 1.460937-14.640624 5.042968-20.292968 10.335937-22.214844 20.835937-23.386719 55.722656-2.617188 78.003906l46.472656 49.679688-.589843 1.417969c-6.660157 15.769531-14.730469 30.902343-24.105469 45.226562l-47.265625 71.808594c-13.984375 21.328125-32.34375 39.441406-53.863281 53.136718l-18.125 11.46875-19.730469 12.507813-.195313.128906c-9.09375 5.964844-15.015624 15.707031-16.128906 26.527344-1.113281 10.816406 2.699219 21.5625 10.386719 29.253906zm36.949219-9.273437c-8.917969 6.015625-21.023438 3.664062-27.039063-5.253906-6.015625-8.917969-3.664062-21.019532 5.253907-27.039063l12.800781-8.070313 22.339843 31.898438zm198.238281 2.78125c-5.230469 1.25-10.742187.277344-15.222656-2.6875-1.046875-.679688-2.019531-1.46875-2.894531-2.355469-6.242188-6.890625-7.253907-17.046875-2.492188-25.027344l4.105469-6.957031 2.160156-3.644531 35.054687 17.527343-8.339843 13.902344c-2.667969 4.65625-7.148438 8-12.371094 9.234375zm-10.242187-267.945313c7.199218 7.671875 6.96875 19.683594-.519532 27.074219h-.058594c-.121093.121094-.308593.324219-.480468.519531-.542969.464844-1.113282.894531-1.703125 1.289063-.488281.359375-.941407.761718-1.453125 1.066406-.511719.308594-.851563.394531-1.238282.597656-.742187.40625-1.511718.761719-2.300781 1.066406l-.25.0625c-1.140625.390626-2.320312.675782-3.515625.851563-1.304687.171875-2.625.222656-3.941406.144531h-.058594c-4.941406-.292968-9.578125-2.464844-12.972656-6.066406l-6.09375-6.519531 27.582031-27.570313zm139.179687 155.824219 20.984375-14.675781 2.925781 5.050781c2.675781 4.660156 3.3125 10.214844 1.765625 15.359375-1.390625 4.730469-4.539062 8.75-8.796875 11.238281zm40.105469 43.289062 62.074218-11.714843c1.226563-.230469 2.386719-.433594 3.488282-.597657 3.800781-.570312 7.65625.566407 10.539062 3.105469 2.796875 2.457031 4.328125 6.046875 4.164063 9.761719.394531 5.722656-1.527344 11.363281-5.332031 15.65625-3.804688 4.292969-9.171876 6.875-14.898438 7.171875l-61.21875 11.546875c-5.890625 1.105469-11.929688-.949219-15.925781-5.417969l-161.78125-181.839843c1.46875-.632813 2.894531-1.359376 4.265625-2.183594l144.070312 145.066406c7.976563 8.007812 19.40625 11.546875 30.511719 9.445312zm-84.992188-292.597656c-19.457031.273438-36.875-12.015625-43.144531-30.4375h19.902344c9.53125-.042968 17.363281-7.542968 17.816406-17.066406h45.671875c.90625 0 1.8125-.050781 2.710938-.144531.621093 1.144531.949218 2.425781.957031 3.726562-.039063 24.253907-19.699219 43.902344-43.957031 43.921875zm-55.464844-91.699218c7.261719-15.386719 26.164063-24.21875 51.933594-24.21875 27.621094 0 45.644532 12.800781 53.539063 37.921874.507812 2.410157.074219 4.925782-1.210938 7.023438-1.441406 2.832031-3.871093 5.03125-6.828125 6.1875-.558594.140625-1.132812.214844-1.707031.214844h-45.671875c-4.492188-.363282-8.925781 1.207031-12.1875 4.320312-3.257812 3.113282-5.035156 7.472656-4.878906 11.976563-.007813.421875-.347656.757812-.765625.769531h-24.089844c-10.957031-11.957031-14.117187-29.121094-8.140625-44.195312zm-128.121093 146.773437c-14.34375-15.402344-13.53125-39.503906 1.820312-53.90625 3.296875-3.070313 7.402344-5.140625 11.835938-5.972656l75.039062-14.359375c9.5625-1.847656 19.464844.042968 27.675781 5.28125l32.425782 20.597656 1.058594.675781 33.144531 21.085938c10.492187 6.703125 17.058593 18.101562 17.59375 30.539062l2.945312 66.75c.914063 20.878907 6.816407 41.238281 17.210938 59.375l20.113281 34.695313-24.601562 17.1875-41.949219-42.234375c2.660156-2.75 3.160156-6.9375 1.226562-10.238281l-2.839843-4.882813-2.140626-7.328125c-3.171874-10.804688-5-21.953125-5.453124-33.203125l-.929688-19.628906c-.179688-3.746094-2.78125-6.9375-6.414062-7.863281-3.636719-.929688-7.449219.625-9.398438 3.828124l-20.089844 32.972657-22.304687-22.449219c8.851562-13.96875 7.09375-32.164062-4.265625-44.179688l-23.953125-25.597656 10.808593-25.601562c1.160157-2.816406.730469-6.035156-1.125-8.449219-1.855468-2.414063-4.855468-3.65625-7.875-3.257813l-36.898437 5.121094c-.40625.082032-.804687.195313-1.195313.332032-.257812.078124-.519531.117187-.777343.222656-.914063.363281-1.757813.886718-2.492188 1.542968-.050781.050782-.125.058594-.179687.109376-.050782.054687-.152344.25-.253906.359374-.582032.601563-1.070313 1.285157-1.449219 2.03125-.105469.214844-.230469.402344-.324219.625-.09375.21875-.148438.238282-.199219.375-.269531.800782-.425781 1.636719-.460937 2.480469v.324219c.007812.886719.148437 1.769531.417968 2.613281.070313.222657.148438.425781.230469.648438.371094.960937.910157 1.84375 1.597657 2.609375l23.894531 25.601562s.082031.050782.125.085938l9.0625 9.53125-27.613281 27.605468zm-82.722657 247.339844c23.554688-14.988281 43.652344-34.8125 58.957032-58.15625l47.285156-71.832031c8.820312-13.527344 16.546875-27.730469 23.117188-42.480469l1.707031 1.808593c5.492187 5.84375 12.773437 9.699219 20.691406 10.964844l100.695313 113.160156-40.628907 67.730469-35.15625-17.578125 34.984375-59.160156c1.5625-2.640625 1.585938-5.914062.070313-8.574219-1.519531-2.660156-4.351563-4.304687-7.414063-4.304687h-75.949218c-9.117188.027344-17.621094 4.605468-22.664063 12.203125l-5.476563 8.4375c-23.207031 34.597656-53.359374 63.980469-88.542968 86.28125l-22.265625-31.785157zm0 0"/><path d="m128.140625 17.273438h93.867187c4.714844 0 8.535157-3.820313 8.535157-8.53125 0-4.714844-3.820313-8.535157-8.535157-8.535157h-93.867187c-4.710937 0-8.53125 3.820313-8.53125 8.535157 0 4.710937 3.820313 8.53125 8.53125 8.53125zm0 0"/><path d="m222.007812 34.339844h-42.667968c-4.710938 0-8.53125 3.820312-8.53125 8.535156 0 4.710938 3.820312 8.53125 8.53125 8.53125h42.667968c4.714844 0 8.535157-3.820312 8.535157-8.53125 0-4.714844-3.820313-8.535156-8.535157-8.535156zm0 0"/><path d="m76.941406 256.207031h59.734375c4.710938 0 8.53125-3.820312 8.53125-8.53125 0-4.714843-3.820312-8.535156-8.53125-8.535156h-59.734375c-4.714844 0-8.535156 3.820313-8.535156 8.535156 0 4.710938 3.820312 8.53125 8.535156 8.53125zm0 0"/><path d="m136.675781 273.273438h-25.601562c-4.710938 0-8.53125 3.820312-8.53125 8.535156 0 4.710937 3.820312 8.53125 8.53125 8.53125h25.601562c4.710938 0 8.53125-3.820313 8.53125-8.53125 0-4.714844-3.820312-8.535156-8.53125-8.535156zm0 0"/></svg>